<svg xmlns="http://www.w3.org/2000/svg" xmlns:xlink="http://www.w3.org/1999/xlink" version="1.1" x="0px" y="0px" viewBox="0 0 144.083 180" enable-background="new 0 0 144.083 144" xml:space="preserve"><path d="M41.299,75.544v24.891c0,0.828,0.672,1.5,1.5,1.5h25.777c0.828,0,1.5-0.672,1.5-1.5V75.544c0-0.828-0.672-1.5-1.5-1.5  H42.799C41.971,74.044,41.299,74.716,41.299,75.544z M57.188,77.044h9.889v9.445h-9.889V77.044z M57.188,89.489h9.889v9.445h-9.889  V89.489z M44.299,77.044h9.889v9.445h-9.889V77.044z M44.299,89.489h9.889v9.445h-9.889V89.489z"/><path d="M127.948,86.462c0-8.852-7.201-16.054-16.053-16.054c-8.854,0-16.055,7.202-16.055,16.054  c0,8.346,6.402,15.218,14.555,15.978v10.839H85.059v-37.16l0.486,0.486c0.293,0.293,0.676,0.439,1.061,0.439  c0.383,0,0.768-0.146,1.061-0.439l6.719-6.717c0.281-0.281,0.439-0.662,0.439-1.061c0-0.397-0.158-0.779-0.439-1.061l-9.387-9.387  c0.086-0.191,0.137-0.398,0.137-0.613V31.99c0-0.828-0.672-1.5-1.5-1.5H68.576c-0.828,0-1.5,0.672-1.5,1.5v8.468L56.777,30.159  c-0.225-0.225-0.508-0.359-0.804-0.406c-0.479-0.103-1.002,0.033-1.376,0.406L16.99,67.767c-0.281,0.281-0.439,0.663-0.439,1.061  s0.158,0.779,0.439,1.061l6.717,6.717c0.586,0.586,1.535,0.586,2.121,0l0.488-0.488v38.662c0,0.828,0.672,1.5,1.5,1.5h55.743  c0.025,0,0.051-0.007,0.076-0.008v0.008h35.543v-3h-5.783v-10.839C121.545,101.68,127.948,94.808,127.948,86.462z M70.076,33.49  h12.059v22.026L70.076,43.458V33.49z M82.059,113.278H29.316V73.116l26.371-26.371l26.372,26.373V113.278z M56.748,43.563  c-0.281-0.281-0.663-0.439-1.061-0.439s-0.779,0.158-1.061,0.439L24.768,73.423l-4.596-4.596l35.516-35.516l35.516,35.516  l-4.598,4.596L56.748,43.563z M110.395,86.462v12.961c-6.494-0.747-11.555-6.271-11.555-12.961c0-7.198,5.855-13.054,13.055-13.054  c7.197,0,13.053,5.855,13.053,13.054c0,6.69-5.061,12.213-11.553,12.961V86.462H110.395z"/><text x="0" y="159" fill="#000000" font-size="5px" font-weight="bold" font-family="'Helvetica Neue', Helvetica, Arial-Unicode, Arial, Sans-serif">Created by Chanut is Industries</text><text x="0" y="164" fill="#000000" font-size="5px" font-weight="bold" font-family="'Helvetica Neue', Helvetica, Arial-Unicode, Arial, Sans-serif">from the Noun Project</text></svg>